G75*
%MOIN*%
%OFA0B0*%
%FSLAX25Y25*%
%IPPOS*%
%LPD*%
%AMOC8*
5,1,8,0,0,1.08239X$1,22.5*
%
%ADD10C,0.00000*%
%ADD11C,0.07677*%
%ADD12R,0.03937X0.04331*%
%ADD13C,0.05150*%
%ADD14C,0.07400*%
%ADD15R,0.08000X0.02600*%
%ADD16C,0.06400*%
%ADD17R,0.03937X0.05512*%
%ADD18R,0.01969X0.02559*%
%ADD19R,0.04724X0.03150*%
%ADD20R,0.03150X0.04724*%
%ADD21R,0.08700X0.02400*%
%ADD22C,0.01600*%
%ADD23C,0.01000*%
%ADD24C,0.03562*%
D10*
X0007386Y0001800D02*
X0007386Y0253769D01*
X0083173Y0253769D01*
X0083173Y0001800D01*
X0007386Y0001800D01*
D11*
X0045103Y0047351D03*
X0045103Y0126091D03*
D12*
X0068055Y0164398D03*
X0068055Y0171091D03*
X0022189Y0121446D03*
X0022189Y0114753D03*
D13*
X0039945Y0246328D03*
X0049945Y0246328D03*
D14*
X0045221Y0229005D03*
X0055221Y0229005D03*
X0065221Y0229005D03*
X0065221Y0149005D03*
X0055221Y0149005D03*
X0045221Y0149005D03*
X0035221Y0149005D03*
X0025221Y0149005D03*
X0025221Y0229005D03*
X0035221Y0229005D03*
D15*
X0033042Y0206387D03*
X0033042Y0201387D03*
X0033042Y0196387D03*
X0033042Y0191387D03*
X0033042Y0186387D03*
X0033042Y0181387D03*
X0033042Y0176387D03*
X0033042Y0171387D03*
X0057242Y0171387D03*
X0057242Y0176387D03*
X0057242Y0181387D03*
X0057242Y0186387D03*
X0057242Y0191387D03*
X0057242Y0196387D03*
X0057242Y0201387D03*
X0057242Y0206387D03*
D16*
X0054866Y0083020D03*
X0054866Y0073020D03*
X0044866Y0073020D03*
X0044866Y0083020D03*
X0034866Y0083020D03*
X0034866Y0073020D03*
D17*
X0066677Y0121406D03*
X0070418Y0130068D03*
X0074158Y0121406D03*
D18*
X0049630Y0213985D03*
X0049630Y0218906D03*
X0046480Y0218906D03*
X0046480Y0213985D03*
X0043331Y0213985D03*
X0043331Y0218906D03*
X0040181Y0218906D03*
X0040181Y0213985D03*
X0023882Y0166190D03*
X0023882Y0161269D03*
X0020732Y0161269D03*
X0020732Y0166190D03*
X0017583Y0166190D03*
X0017583Y0161269D03*
X0014433Y0161269D03*
X0014433Y0166190D03*
D19*
X0073961Y0107194D03*
X0073961Y0100107D03*
D20*
X0048488Y0238257D03*
X0041402Y0238257D03*
D21*
X0031863Y0109930D03*
X0031863Y0104930D03*
X0031863Y0099930D03*
X0031863Y0094930D03*
X0058363Y0094930D03*
X0058363Y0099930D03*
X0058363Y0104930D03*
X0058363Y0109930D03*
D22*
X0058363Y0104930D02*
X0066028Y0104930D01*
X0067229Y0106131D01*
X0067229Y0112824D01*
X0069030Y0115520D02*
X0067861Y0116005D01*
X0066596Y0116005D01*
X0065427Y0115520D01*
X0064532Y0114626D01*
X0064047Y0113456D01*
X0064047Y0112191D01*
X0064532Y0111022D01*
X0065029Y0110525D01*
X0065029Y0107130D01*
X0063693Y0107130D01*
X0063393Y0107430D01*
X0064113Y0108150D01*
X0064113Y0111710D01*
X0063293Y0112530D01*
X0053433Y0112530D01*
X0053380Y0112477D01*
X0053380Y0115154D01*
X0054082Y0115154D01*
X0055251Y0115639D01*
X0056146Y0116533D01*
X0056630Y0117703D01*
X0056630Y0118968D01*
X0056146Y0120137D01*
X0055251Y0121032D01*
X0054082Y0121517D01*
X0052816Y0121517D01*
X0051647Y0121032D01*
X0050752Y0120137D01*
X0050268Y0118968D01*
X0050268Y0117841D01*
X0049580Y0117154D01*
X0049580Y0110856D01*
X0050693Y0109743D01*
X0052406Y0108030D01*
X0052733Y0108030D01*
X0053333Y0107430D01*
X0052613Y0106710D01*
X0052613Y0103150D01*
X0053333Y0102430D01*
X0052613Y0101710D01*
X0052613Y0098150D01*
X0053089Y0097675D01*
X0052908Y0097570D01*
X0052573Y0097235D01*
X0052336Y0096825D01*
X0052213Y0096367D01*
X0052213Y0094930D01*
X0058363Y0094930D01*
X0058363Y0094930D01*
X0052213Y0094930D01*
X0052213Y0093493D01*
X0052336Y0093035D01*
X0052573Y0092625D01*
X0052908Y0092290D01*
X0053318Y0092053D01*
X0053776Y0091930D01*
X0058363Y0091930D01*
X0058363Y0094930D01*
X0058363Y0094930D01*
X0058363Y0091930D01*
X0062950Y0091930D01*
X0063408Y0092053D01*
X0063818Y0092290D01*
X0064154Y0092625D01*
X0064391Y0093035D01*
X0064513Y0093493D01*
X0064513Y0094930D01*
X0064513Y0096367D01*
X0064391Y0096825D01*
X0064154Y0097235D01*
X0063818Y0097570D01*
X0063638Y0097675D01*
X0063693Y0097730D01*
X0070421Y0097730D01*
X0071019Y0097132D01*
X0076903Y0097132D01*
X0077723Y0097952D01*
X0077723Y0102262D01*
X0076903Y0103082D01*
X0071019Y0103082D01*
X0070199Y0102262D01*
X0070199Y0102130D01*
X0063693Y0102130D01*
X0063393Y0102430D01*
X0063693Y0102730D01*
X0066939Y0102730D01*
X0068140Y0103931D01*
X0069429Y0105219D01*
X0069429Y0110525D01*
X0069925Y0111022D01*
X0070410Y0112191D01*
X0070410Y0113456D01*
X0069925Y0114626D01*
X0069030Y0115520D01*
X0069257Y0115294D02*
X0071761Y0115294D01*
X0071761Y0113696D02*
X0070310Y0113696D01*
X0070371Y0112097D02*
X0071761Y0112097D01*
X0071761Y0110499D02*
X0069429Y0110499D01*
X0070199Y0109348D02*
X0070199Y0105039D01*
X0071019Y0104219D01*
X0076903Y0104219D01*
X0077723Y0105039D01*
X0077723Y0109348D01*
X0076903Y0110168D01*
X0076161Y0110168D01*
X0076161Y0117250D01*
X0076706Y0117250D01*
X0077526Y0118070D01*
X0077526Y0124742D01*
X0076706Y0125562D01*
X0071609Y0125562D01*
X0070789Y0124742D01*
X0070789Y0118070D01*
X0071609Y0117250D01*
X0071761Y0117250D01*
X0071761Y0110168D01*
X0071019Y0110168D01*
X0070199Y0109348D01*
X0070199Y0108900D02*
X0069429Y0108900D01*
X0069429Y0107302D02*
X0070199Y0107302D01*
X0070199Y0105703D02*
X0069429Y0105703D01*
X0068314Y0104105D02*
X0081373Y0104105D01*
X0081373Y0105703D02*
X0077723Y0105703D01*
X0077723Y0107302D02*
X0081373Y0107302D01*
X0081373Y0108900D02*
X0077723Y0108900D01*
X0076161Y0110499D02*
X0081373Y0110499D01*
X0081373Y0112097D02*
X0076161Y0112097D01*
X0076161Y0113696D02*
X0081373Y0113696D01*
X0081373Y0115294D02*
X0076161Y0115294D01*
X0076161Y0116893D02*
X0081373Y0116893D01*
X0081373Y0118491D02*
X0077526Y0118491D01*
X0077526Y0120090D02*
X0081373Y0120090D01*
X0081373Y0121688D02*
X0077526Y0121688D01*
X0077526Y0123287D02*
X0081373Y0123287D01*
X0081373Y0124885D02*
X0077383Y0124885D01*
X0074158Y0121406D02*
X0073961Y0121209D01*
X0073961Y0107194D01*
X0073961Y0100107D02*
X0073784Y0099930D01*
X0058363Y0099930D01*
X0058363Y0094930D02*
X0064513Y0094930D01*
X0058363Y0094930D01*
X0058363Y0094930D01*
X0058363Y0094514D02*
X0058363Y0094514D01*
X0058363Y0092915D02*
X0058363Y0092915D01*
X0055781Y0087620D02*
X0057472Y0086920D01*
X0058766Y0085626D01*
X0059058Y0084920D01*
X0060417Y0084920D01*
X0062897Y0082440D01*
X0064010Y0081327D01*
X0064010Y0067548D01*
X0060073Y0063611D01*
X0058960Y0062498D01*
X0027465Y0062498D01*
X0021953Y0068010D01*
X0020840Y0069123D01*
X0020840Y0097469D01*
X0024088Y0100717D01*
X0025201Y0101830D01*
X0026233Y0101830D01*
X0026833Y0102430D01*
X0026233Y0103030D01*
X0018823Y0103030D01*
X0015754Y0106099D01*
X0014627Y0106099D01*
X0013458Y0106584D01*
X0012563Y0107478D01*
X0012079Y0108648D01*
X0012079Y0109913D01*
X0012563Y0111082D01*
X0013458Y0111977D01*
X0014627Y0112461D01*
X0015893Y0112461D01*
X0017062Y0111977D01*
X0017957Y0111082D01*
X0018441Y0109913D01*
X0018441Y0108786D01*
X0020397Y0106830D01*
X0026233Y0106830D01*
X0026833Y0107430D01*
X0026533Y0107730D01*
X0021967Y0107730D01*
X0021278Y0108419D01*
X0019989Y0109708D01*
X0019989Y0111187D01*
X0019641Y0111187D01*
X0018821Y0112007D01*
X0018821Y0117498D01*
X0019145Y0117823D01*
X0019115Y0117840D01*
X0018780Y0118175D01*
X0018543Y0118586D01*
X0018421Y0119043D01*
X0018421Y0121261D01*
X0022005Y0121261D01*
X0022005Y0121630D01*
X0022005Y0125411D01*
X0019984Y0125411D01*
X0019526Y0125288D01*
X0019115Y0125051D01*
X0018780Y0124716D01*
X0018543Y0124306D01*
X0018421Y0123848D01*
X0018421Y0121630D01*
X0022005Y0121630D01*
X0022373Y0121630D01*
X0022373Y0125411D01*
X0024395Y0125411D01*
X0024852Y0125288D01*
X0025263Y0125051D01*
X0025598Y0124716D01*
X0025835Y0124306D01*
X0025958Y0123848D01*
X0025958Y0121630D01*
X0022373Y0121630D01*
X0022373Y0121261D01*
X0025958Y0121261D01*
X0025958Y0119043D01*
X0025835Y0118586D01*
X0025598Y0118175D01*
X0025263Y0117840D01*
X0025233Y0117823D01*
X0025558Y0117498D01*
X0025558Y0112130D01*
X0026533Y0112130D01*
X0026933Y0112530D01*
X0029663Y0112530D01*
X0029663Y0128763D01*
X0043021Y0142121D01*
X0043021Y0144396D01*
X0042332Y0144681D01*
X0040897Y0146116D01*
X0040221Y0147749D01*
X0039544Y0146116D01*
X0038110Y0144681D01*
X0036235Y0143905D01*
X0034206Y0143905D01*
X0032332Y0144681D01*
X0030897Y0146116D01*
X0030221Y0147749D01*
X0029544Y0146116D01*
X0028110Y0144681D01*
X0026235Y0143905D01*
X0024206Y0143905D01*
X0022332Y0144681D01*
X0020897Y0146116D01*
X0020612Y0146805D01*
X0016357Y0146805D01*
X0015068Y0148093D01*
X0012233Y0150928D01*
X0012233Y0159225D01*
X0012049Y0159409D01*
X0012049Y0163128D01*
X0012650Y0163729D01*
X0012049Y0164330D01*
X0012049Y0168049D01*
X0012233Y0168233D01*
X0012233Y0179444D01*
X0013522Y0180732D01*
X0013522Y0180732D01*
X0020147Y0187357D01*
X0020147Y0187357D01*
X0021435Y0188646D01*
X0028021Y0188646D01*
X0028262Y0188887D01*
X0027642Y0189507D01*
X0027642Y0193267D01*
X0028262Y0193887D01*
X0027642Y0194507D01*
X0027642Y0198267D01*
X0028262Y0198887D01*
X0027942Y0199206D01*
X0026780Y0199206D01*
X0026618Y0198817D01*
X0025723Y0197922D01*
X0024554Y0197438D01*
X0023289Y0197438D01*
X0022119Y0197922D01*
X0021225Y0198817D01*
X0020740Y0199986D01*
X0020740Y0201252D01*
X0021225Y0202421D01*
X0022119Y0203316D01*
X0023289Y0203800D01*
X0024554Y0203800D01*
X0025022Y0203606D01*
X0027982Y0203606D01*
X0027991Y0203615D01*
X0027937Y0203646D01*
X0027602Y0203981D01*
X0027365Y0204392D01*
X0027242Y0204850D01*
X0027242Y0206387D01*
X0033042Y0206387D01*
X0033042Y0206387D01*
X0033042Y0209487D01*
X0037279Y0209487D01*
X0037737Y0209364D01*
X0037981Y0209223D01*
X0037981Y0211941D01*
X0037797Y0212126D01*
X0037797Y0215844D01*
X0038398Y0216446D01*
X0038138Y0216706D01*
X0027557Y0216706D01*
X0024309Y0219954D01*
X0023021Y0221243D01*
X0023021Y0224396D01*
X0022332Y0224681D01*
X0020897Y0226116D01*
X0020121Y0227990D01*
X0020121Y0230019D01*
X0020897Y0231894D01*
X0022332Y0233328D01*
X0024206Y0234105D01*
X0026235Y0234105D01*
X0028110Y0233328D01*
X0029544Y0231894D01*
X0030221Y0230261D01*
X0030897Y0231894D01*
X0032332Y0233328D01*
X0034206Y0234105D01*
X0036235Y0234105D01*
X0038110Y0233328D01*
X0039544Y0231894D01*
X0040221Y0230261D01*
X0040897Y0231894D01*
X0042332Y0233328D01*
X0044206Y0234105D01*
X0046235Y0234105D01*
X0046288Y0234083D01*
X0046288Y0234540D01*
X0045514Y0235315D01*
X0045514Y0241199D01*
X0046334Y0242019D01*
X0050643Y0242019D01*
X0051463Y0241199D01*
X0051463Y0235315D01*
X0050688Y0234540D01*
X0050688Y0231390D01*
X0050897Y0231894D01*
X0052332Y0233328D01*
X0054206Y0234105D01*
X0056235Y0234105D01*
X0058110Y0233328D01*
X0059544Y0231894D01*
X0060221Y0230261D01*
X0060897Y0231894D01*
X0062332Y0233328D01*
X0064206Y0234105D01*
X0066235Y0234105D01*
X0068110Y0233328D01*
X0069544Y0231894D01*
X0070321Y0230019D01*
X0070321Y0227990D01*
X0069544Y0226116D01*
X0068110Y0224681D01*
X0067421Y0224396D01*
X0067421Y0221322D01*
X0066132Y0220033D01*
X0062805Y0216706D01*
X0054616Y0216706D01*
X0054955Y0216367D01*
X0054955Y0210462D01*
X0053842Y0209349D01*
X0053580Y0209087D01*
X0061822Y0209087D01*
X0062642Y0208267D01*
X0062642Y0204507D01*
X0062022Y0203887D01*
X0062622Y0203287D01*
X0063360Y0203287D01*
X0063360Y0210225D01*
X0062563Y0211022D01*
X0062079Y0212191D01*
X0062079Y0213456D01*
X0062563Y0214626D01*
X0063458Y0215520D01*
X0064627Y0216005D01*
X0065893Y0216005D01*
X0067062Y0215520D01*
X0067957Y0214626D01*
X0068441Y0213456D01*
X0068441Y0212191D01*
X0067957Y0211022D01*
X0067160Y0210225D01*
X0067160Y0201413D01*
X0068171Y0201831D01*
X0069436Y0201831D01*
X0070605Y0201347D01*
X0071500Y0200452D01*
X0071984Y0199283D01*
X0071984Y0198018D01*
X0071500Y0196848D01*
X0070605Y0195954D01*
X0069436Y0195469D01*
X0068309Y0195469D01*
X0067843Y0195003D01*
X0068171Y0195139D01*
X0069436Y0195139D01*
X0070605Y0194654D01*
X0071500Y0193759D01*
X0071984Y0192590D01*
X0071984Y0191325D01*
X0071500Y0190156D01*
X0070605Y0189261D01*
X0069436Y0188776D01*
X0068171Y0188776D01*
X0067001Y0189261D01*
X0066775Y0189487D01*
X0062622Y0189487D01*
X0062293Y0189158D01*
X0062347Y0189127D01*
X0062682Y0188792D01*
X0062919Y0188381D01*
X0063042Y0187924D01*
X0063042Y0186387D01*
X0057242Y0186387D01*
X0057242Y0186387D01*
X0063042Y0186387D01*
X0063042Y0186321D01*
X0063351Y0187067D01*
X0064245Y0187961D01*
X0065415Y0188446D01*
X0066680Y0188446D01*
X0067849Y0187961D01*
X0068744Y0187067D01*
X0069229Y0185897D01*
X0069229Y0184632D01*
X0068744Y0183463D01*
X0067849Y0182568D01*
X0066680Y0182083D01*
X0065553Y0182083D01*
X0062956Y0179487D01*
X0062622Y0179487D01*
X0062022Y0178887D01*
X0062642Y0178267D01*
X0062642Y0174507D01*
X0062022Y0173887D01*
X0062622Y0173287D01*
X0064687Y0173287D01*
X0064687Y0173837D01*
X0065507Y0174657D01*
X0065919Y0174657D01*
X0065919Y0175382D01*
X0065122Y0176179D01*
X0064638Y0177348D01*
X0064638Y0178614D01*
X0065122Y0179783D01*
X0066017Y0180678D01*
X0067186Y0181162D01*
X0068452Y0181162D01*
X0069621Y0180678D01*
X0070516Y0179783D01*
X0071000Y0178614D01*
X0071000Y0177348D01*
X0070516Y0176179D01*
X0069719Y0175382D01*
X0069719Y0174657D01*
X0070604Y0174657D01*
X0071424Y0173837D01*
X0071424Y0168346D01*
X0071099Y0168021D01*
X0071129Y0168004D01*
X0071464Y0167669D01*
X0071701Y0167259D01*
X0071824Y0166801D01*
X0071824Y0164583D01*
X0068240Y0164583D01*
X0068240Y0164214D01*
X0071824Y0164214D01*
X0071824Y0161996D01*
X0071701Y0161538D01*
X0071464Y0161128D01*
X0071129Y0160793D01*
X0070719Y0160556D01*
X0070261Y0160433D01*
X0068240Y0160433D01*
X0068240Y0164214D01*
X0067871Y0164214D01*
X0067871Y0160433D01*
X0065850Y0160433D01*
X0065392Y0160556D01*
X0064982Y0160793D01*
X0064646Y0161128D01*
X0064409Y0161538D01*
X0064287Y0161996D01*
X0064287Y0164214D01*
X0067871Y0164214D01*
X0067871Y0164583D01*
X0064287Y0164583D01*
X0064287Y0166801D01*
X0064409Y0167259D01*
X0064646Y0167669D01*
X0064982Y0168004D01*
X0065011Y0168021D01*
X0064687Y0168346D01*
X0064687Y0169487D01*
X0062622Y0169487D01*
X0061822Y0168687D01*
X0052662Y0168687D01*
X0051842Y0169507D01*
X0051842Y0173267D01*
X0052462Y0173887D01*
X0051862Y0174487D01*
X0050910Y0174487D01*
X0049797Y0175600D01*
X0048006Y0177391D01*
X0048006Y0191308D01*
X0042357Y0185659D01*
X0042357Y0172273D01*
X0040684Y0170600D01*
X0039571Y0169487D01*
X0038422Y0169487D01*
X0037622Y0168687D01*
X0028462Y0168687D01*
X0027642Y0169507D01*
X0027642Y0173267D01*
X0028262Y0173887D01*
X0027962Y0174187D01*
X0025404Y0174187D01*
X0022932Y0171715D01*
X0022932Y0168869D01*
X0025446Y0168869D01*
X0025926Y0168390D01*
X0040156Y0168390D01*
X0043375Y0171609D01*
X0043375Y0172336D01*
X0042878Y0172833D01*
X0042394Y0174002D01*
X0042394Y0175267D01*
X0042878Y0176437D01*
X0043773Y0177331D01*
X0044942Y0177816D01*
X0046208Y0177816D01*
X0047377Y0177331D01*
X0048272Y0176437D01*
X0048756Y0175267D01*
X0048756Y0174002D01*
X0048272Y0172833D01*
X0047775Y0172336D01*
X0047775Y0169786D01*
X0046486Y0168498D01*
X0041978Y0163990D01*
X0025926Y0163990D01*
X0025665Y0163729D01*
X0025926Y0163468D01*
X0060246Y0163468D01*
X0066132Y0157583D01*
X0067421Y0156294D01*
X0067421Y0153614D01*
X0068110Y0153328D01*
X0069544Y0151894D01*
X0070321Y0150019D01*
X0070321Y0147990D01*
X0069544Y0146116D01*
X0068110Y0144681D01*
X0066235Y0143905D01*
X0064206Y0143905D01*
X0062332Y0144681D01*
X0060897Y0146116D01*
X0060221Y0147749D01*
X0059544Y0146116D01*
X0058110Y0144681D01*
X0056235Y0143905D01*
X0054206Y0143905D01*
X0052332Y0144681D01*
X0050897Y0146116D01*
X0050221Y0147749D01*
X0049544Y0146116D01*
X0048110Y0144681D01*
X0047421Y0144396D01*
X0047421Y0140298D01*
X0046132Y0139009D01*
X0034063Y0126941D01*
X0034063Y0112530D01*
X0036793Y0112530D01*
X0037493Y0111830D01*
X0040594Y0111830D01*
X0049118Y0103306D01*
X0050231Y0102193D01*
X0050231Y0089201D01*
X0050693Y0088739D01*
X0051806Y0087626D01*
X0051806Y0086465D01*
X0052261Y0086920D01*
X0053951Y0087620D01*
X0055781Y0087620D01*
X0057871Y0086521D02*
X0081373Y0086521D01*
X0081373Y0084923D02*
X0059057Y0084923D01*
X0058995Y0080968D02*
X0060210Y0079753D01*
X0060210Y0069122D01*
X0057386Y0066298D01*
X0029039Y0066298D01*
X0024640Y0070697D01*
X0024640Y0095895D01*
X0026504Y0097759D01*
X0026833Y0097430D01*
X0026113Y0096710D01*
X0026113Y0093150D01*
X0026933Y0092330D01*
X0036793Y0092330D01*
X0037292Y0092829D01*
X0038163Y0091958D01*
X0038163Y0086229D01*
X0037472Y0086920D01*
X0035781Y0087620D01*
X0033951Y0087620D01*
X0032261Y0086920D01*
X0030967Y0085626D01*
X0030266Y0083935D01*
X0030266Y0082105D01*
X0030967Y0080415D01*
X0032261Y0079121D01*
X0033951Y0078420D01*
X0035781Y0078420D01*
X0037472Y0079121D01*
X0038163Y0079812D01*
X0038163Y0076795D01*
X0038124Y0076834D01*
X0037487Y0077297D01*
X0036786Y0077654D01*
X0036037Y0077897D01*
X0035260Y0078020D01*
X0034952Y0078020D01*
X0034952Y0073106D01*
X0039866Y0073106D01*
X0039866Y0073414D01*
X0039743Y0074191D01*
X0039500Y0074940D01*
X0039160Y0075606D01*
X0040432Y0074335D01*
X0040266Y0073935D01*
X0040266Y0072105D01*
X0040967Y0070415D01*
X0042261Y0069121D01*
X0043951Y0068420D01*
X0045781Y0068420D01*
X0047472Y0069121D01*
X0048766Y0070415D01*
X0049466Y0072105D01*
X0049466Y0073935D01*
X0048766Y0075626D01*
X0047472Y0076920D01*
X0045781Y0077620D01*
X0043951Y0077620D01*
X0042939Y0077201D01*
X0041963Y0078178D01*
X0041963Y0079418D01*
X0042261Y0079121D01*
X0043951Y0078420D01*
X0045781Y0078420D01*
X0047472Y0079121D01*
X0048006Y0079654D01*
X0048006Y0077194D01*
X0050559Y0074641D01*
X0050266Y0073935D01*
X0050266Y0072105D01*
X0050967Y0070415D01*
X0052261Y0069121D01*
X0053951Y0068420D01*
X0055781Y0068420D01*
X0057472Y0069121D01*
X0058766Y0070415D01*
X0059466Y0072105D01*
X0059466Y0073935D01*
X0058766Y0075626D01*
X0057472Y0076920D01*
X0055781Y0077620D01*
X0053951Y0077620D01*
X0053246Y0077328D01*
X0051806Y0078768D01*
X0051806Y0079576D01*
X0052261Y0079121D01*
X0053951Y0078420D01*
X0055781Y0078420D01*
X0057472Y0079121D01*
X0058766Y0080415D01*
X0058995Y0080968D01*
X0058478Y0080127D02*
X0059837Y0080127D01*
X0060210Y0078529D02*
X0056042Y0078529D01*
X0057448Y0076930D02*
X0060210Y0076930D01*
X0060210Y0075332D02*
X0058888Y0075332D01*
X0059466Y0073733D02*
X0060210Y0073733D01*
X0060210Y0072134D02*
X0059466Y0072134D01*
X0058816Y0070536D02*
X0060210Y0070536D01*
X0060025Y0068937D02*
X0057029Y0068937D01*
X0058427Y0067339D02*
X0027999Y0067339D01*
X0026400Y0068937D02*
X0031980Y0068937D01*
X0032246Y0068744D02*
X0032947Y0068387D01*
X0033695Y0068144D01*
X0034473Y0068020D01*
X0034780Y0068020D01*
X0034780Y0072935D01*
X0029866Y0072935D01*
X0029866Y0072627D01*
X0029989Y0071850D01*
X0030233Y0071101D01*
X0030590Y0070400D01*
X0031053Y0069763D01*
X0031609Y0069207D01*
X0032246Y0068744D01*
X0030521Y0070536D02*
X0024802Y0070536D01*
X0024640Y0072134D02*
X0029944Y0072134D01*
X0029866Y0073106D02*
X0034780Y0073106D01*
X0034780Y0072935D01*
X0034952Y0072935D01*
X0034952Y0073106D01*
X0034780Y0073106D01*
X0034780Y0078020D01*
X0034473Y0078020D01*
X0033695Y0077897D01*
X0032947Y0077654D01*
X0032246Y0077297D01*
X0031609Y0076834D01*
X0031053Y0076278D01*
X0030590Y0075641D01*
X0030233Y0074940D01*
X0029989Y0074191D01*
X0029866Y0073414D01*
X0029866Y0073106D01*
X0029917Y0073733D02*
X0024640Y0073733D01*
X0024640Y0075332D02*
X0030432Y0075332D01*
X0031741Y0076930D02*
X0024640Y0076930D01*
X0024640Y0078529D02*
X0033690Y0078529D01*
X0034780Y0076930D02*
X0034952Y0076930D01*
X0034952Y0075332D02*
X0034780Y0075332D01*
X0034780Y0073733D02*
X0034952Y0073733D01*
X0034952Y0072935D02*
X0039866Y0072935D01*
X0039866Y0072627D01*
X0039743Y0071850D01*
X0039500Y0071101D01*
X0039143Y0070400D01*
X0038680Y0069763D01*
X0038124Y0069207D01*
X0037487Y0068744D01*
X0036786Y0068387D01*
X0036037Y0068144D01*
X0035260Y0068020D01*
X0034952Y0068020D01*
X0034952Y0072935D01*
X0034952Y0072134D02*
X0034780Y0072134D01*
X0034780Y0070536D02*
X0034952Y0070536D01*
X0034952Y0068937D02*
X0034780Y0068937D01*
X0037753Y0068937D02*
X0042703Y0068937D01*
X0040916Y0070536D02*
X0039212Y0070536D01*
X0039788Y0072134D02*
X0040266Y0072134D01*
X0040266Y0073733D02*
X0039816Y0073733D01*
X0039435Y0075332D02*
X0039300Y0075332D01*
X0038163Y0076930D02*
X0037992Y0076930D01*
X0038163Y0078529D02*
X0036042Y0078529D01*
X0037871Y0086521D02*
X0038163Y0086521D01*
X0038163Y0088120D02*
X0024640Y0088120D01*
X0024640Y0089718D02*
X0038163Y0089718D01*
X0038163Y0091317D02*
X0024640Y0091317D01*
X0024640Y0092915D02*
X0026348Y0092915D01*
X0026113Y0094514D02*
X0024640Y0094514D01*
X0024858Y0096112D02*
X0026113Y0096112D01*
X0026456Y0097711D02*
X0026553Y0097711D01*
X0026757Y0102506D02*
X0009186Y0102506D01*
X0009186Y0100908D02*
X0024279Y0100908D01*
X0022681Y0099309D02*
X0009186Y0099309D01*
X0009186Y0097711D02*
X0021082Y0097711D01*
X0020840Y0096112D02*
X0009186Y0096112D01*
X0009186Y0094514D02*
X0020840Y0094514D01*
X0020840Y0092915D02*
X0009186Y0092915D01*
X0009186Y0091317D02*
X0020840Y0091317D01*
X0020840Y0089718D02*
X0009186Y0089718D01*
X0009186Y0088120D02*
X0020840Y0088120D01*
X0020840Y0086521D02*
X0009186Y0086521D01*
X0009186Y0084923D02*
X0020840Y0084923D01*
X0020840Y0083324D02*
X0009186Y0083324D01*
X0009186Y0081726D02*
X0020840Y0081726D01*
X0020840Y0080127D02*
X0009186Y0080127D01*
X0009186Y0078529D02*
X0020840Y0078529D01*
X0020840Y0076930D02*
X0009186Y0076930D01*
X0009186Y0075332D02*
X0020840Y0075332D01*
X0020840Y0073733D02*
X0009186Y0073733D01*
X0009186Y0072134D02*
X0020840Y0072134D01*
X0020840Y0070536D02*
X0009186Y0070536D01*
X0009186Y0068937D02*
X0021026Y0068937D01*
X0022625Y0067339D02*
X0009186Y0067339D01*
X0009186Y0065740D02*
X0024223Y0065740D01*
X0025822Y0064142D02*
X0009186Y0064142D01*
X0009186Y0062543D02*
X0027420Y0062543D01*
X0024640Y0080127D02*
X0031254Y0080127D01*
X0030424Y0081726D02*
X0024640Y0081726D01*
X0024640Y0083324D02*
X0030266Y0083324D01*
X0030675Y0084923D02*
X0024640Y0084923D01*
X0024640Y0086521D02*
X0031862Y0086521D01*
X0026705Y0107302D02*
X0019926Y0107302D01*
X0020797Y0108900D02*
X0018441Y0108900D01*
X0018199Y0110499D02*
X0019989Y0110499D01*
X0018821Y0112097D02*
X0016772Y0112097D01*
X0018821Y0113696D02*
X0009186Y0113696D01*
X0009186Y0115294D02*
X0018821Y0115294D01*
X0018821Y0116893D02*
X0009186Y0116893D01*
X0009186Y0118491D02*
X0018598Y0118491D01*
X0018421Y0120090D02*
X0009186Y0120090D01*
X0009186Y0121688D02*
X0018421Y0121688D01*
X0018421Y0123287D02*
X0009186Y0123287D01*
X0009186Y0124885D02*
X0018949Y0124885D01*
X0022005Y0124885D02*
X0022373Y0124885D01*
X0022373Y0123287D02*
X0022005Y0123287D01*
X0022005Y0121688D02*
X0022373Y0121688D01*
X0022189Y0114753D02*
X0022189Y0110619D01*
X0022878Y0109930D01*
X0031863Y0109930D01*
X0031863Y0127852D01*
X0045221Y0141209D01*
X0045221Y0149005D01*
X0047421Y0144068D02*
X0053813Y0144068D01*
X0055221Y0149005D02*
X0055221Y0153572D01*
X0050693Y0158099D01*
X0021953Y0158099D01*
X0020732Y0159320D01*
X0020732Y0161269D01*
X0020732Y0166190D02*
X0020732Y0172627D01*
X0024492Y0176387D01*
X0033042Y0176387D01*
X0033042Y0181387D02*
X0023193Y0181387D01*
X0017622Y0175816D01*
X0017622Y0166229D01*
X0017583Y0166190D01*
X0017583Y0161269D02*
X0017583Y0156564D01*
X0019197Y0154950D01*
X0022740Y0154950D01*
X0023134Y0155343D01*
X0028882Y0155343D01*
X0035221Y0149005D01*
X0036628Y0144068D02*
X0043021Y0144068D01*
X0043021Y0142469D02*
X0009186Y0142469D01*
X0009186Y0140870D02*
X0041770Y0140870D01*
X0041347Y0145666D02*
X0039094Y0145666D01*
X0040020Y0147265D02*
X0040421Y0147265D01*
X0040172Y0139272D02*
X0009186Y0139272D01*
X0009186Y0137673D02*
X0038573Y0137673D01*
X0036975Y0136075D02*
X0009186Y0136075D01*
X0009186Y0134476D02*
X0035376Y0134476D01*
X0033778Y0132878D02*
X0009186Y0132878D01*
X0009186Y0131279D02*
X0032179Y0131279D01*
X0030581Y0129681D02*
X0009186Y0129681D01*
X0009186Y0128082D02*
X0029663Y0128082D01*
X0029663Y0126484D02*
X0009186Y0126484D01*
X0009186Y0112097D02*
X0013748Y0112097D01*
X0012322Y0110499D02*
X0009186Y0110499D01*
X0009186Y0108900D02*
X0012079Y0108900D01*
X0012740Y0107302D02*
X0009186Y0107302D01*
X0009186Y0105703D02*
X0016150Y0105703D01*
X0017749Y0104105D02*
X0009186Y0104105D01*
X0009186Y0144068D02*
X0023813Y0144068D01*
X0025221Y0149005D02*
X0017268Y0149005D01*
X0014433Y0151839D01*
X0014433Y0161269D01*
X0014433Y0166190D02*
X0014433Y0178532D01*
X0022347Y0186446D01*
X0032983Y0186446D01*
X0033042Y0186387D01*
X0033042Y0191387D02*
X0040673Y0191387D01*
X0043331Y0194044D01*
X0043331Y0213985D01*
X0043331Y0218906D02*
X0043331Y0221761D01*
X0042032Y0223060D01*
X0036914Y0223060D01*
X0035221Y0224753D01*
X0035221Y0229005D01*
X0037492Y0233584D02*
X0042949Y0233584D01*
X0043556Y0234494D02*
X0044377Y0235315D01*
X0044377Y0241199D01*
X0043602Y0241974D01*
X0043602Y0242318D01*
X0042579Y0243340D01*
X0043315Y0244076D01*
X0043920Y0245537D01*
X0043920Y0247118D01*
X0043315Y0248579D01*
X0042197Y0249697D01*
X0040736Y0250302D01*
X0039154Y0250302D01*
X0037694Y0249697D01*
X0036575Y0248579D01*
X0035970Y0247118D01*
X0035970Y0245537D01*
X0036575Y0244076D01*
X0037694Y0242958D01*
X0037745Y0242937D01*
X0037745Y0241952D01*
X0038462Y0241234D01*
X0038427Y0241199D01*
X0038427Y0235315D01*
X0039247Y0234494D01*
X0043556Y0234494D01*
X0044245Y0235183D02*
X0045645Y0235183D01*
X0045514Y0236781D02*
X0044377Y0236781D01*
X0044377Y0238380D02*
X0045514Y0238380D01*
X0045514Y0239978D02*
X0044377Y0239978D01*
X0043999Y0241577D02*
X0045891Y0241577D01*
X0047694Y0242958D02*
X0046575Y0244076D01*
X0045970Y0245537D01*
X0045970Y0247118D01*
X0046575Y0248579D01*
X0047694Y0249697D01*
X0049154Y0250302D01*
X0050736Y0250302D01*
X0052197Y0249697D01*
X0053315Y0248579D01*
X0053336Y0248528D01*
X0065738Y0248528D01*
X0067027Y0247239D01*
X0067027Y0247239D01*
X0077195Y0237071D01*
X0077195Y0237071D01*
X0078484Y0235782D01*
X0078484Y0143015D01*
X0077195Y0141726D01*
X0072617Y0137149D01*
X0072617Y0134224D01*
X0072966Y0134224D01*
X0073786Y0133404D01*
X0073786Y0126732D01*
X0072966Y0125912D01*
X0069071Y0125912D01*
X0069341Y0125840D01*
X0069751Y0125603D01*
X0070086Y0125267D01*
X0070323Y0124857D01*
X0070446Y0124399D01*
X0070446Y0121591D01*
X0066862Y0121591D01*
X0066493Y0121591D01*
X0066493Y0125962D01*
X0064472Y0125962D01*
X0064014Y0125840D01*
X0063604Y0125603D01*
X0063268Y0125267D01*
X0063032Y0124857D01*
X0062909Y0124399D01*
X0062909Y0121591D01*
X0066493Y0121591D01*
X0066493Y0121222D01*
X0062909Y0121222D01*
X0062909Y0118413D01*
X0063032Y0117956D01*
X0063268Y0117545D01*
X0063604Y0117210D01*
X0064014Y0116973D01*
X0064472Y0116850D01*
X0066493Y0116850D01*
X0066493Y0121222D01*
X0066862Y0121222D01*
X0066862Y0121591D01*
X0066862Y0125962D01*
X0067819Y0125962D01*
X0067049Y0126732D01*
X0067049Y0133404D01*
X0067869Y0134224D01*
X0068218Y0134224D01*
X0068218Y0138971D01*
X0074084Y0144837D01*
X0074084Y0233960D01*
X0063916Y0244128D01*
X0053336Y0244128D01*
X0053315Y0244076D01*
X0052197Y0242958D01*
X0050736Y0242353D01*
X0049154Y0242353D01*
X0047694Y0242958D01*
X0047476Y0243175D02*
X0042744Y0243175D01*
X0043604Y0244774D02*
X0046286Y0244774D01*
X0045970Y0246372D02*
X0043920Y0246372D01*
X0043567Y0247971D02*
X0046323Y0247971D01*
X0047566Y0249569D02*
X0042325Y0249569D01*
X0039945Y0246328D02*
X0039945Y0242863D01*
X0041402Y0241406D01*
X0041402Y0238257D01*
X0038427Y0238380D02*
X0009186Y0238380D01*
X0009186Y0239978D02*
X0038427Y0239978D01*
X0038120Y0241577D02*
X0009186Y0241577D01*
X0009186Y0243175D02*
X0037476Y0243175D01*
X0036286Y0244774D02*
X0009186Y0244774D01*
X0009186Y0246372D02*
X0035970Y0246372D01*
X0036323Y0247971D02*
X0009186Y0247971D01*
X0009186Y0249569D02*
X0037566Y0249569D01*
X0038427Y0236781D02*
X0009186Y0236781D01*
X0009186Y0235183D02*
X0038559Y0235183D01*
X0039452Y0231986D02*
X0040989Y0231986D01*
X0040273Y0230387D02*
X0040168Y0230387D01*
X0040181Y0218906D02*
X0028469Y0218906D01*
X0025221Y0222154D01*
X0025221Y0229005D01*
X0022949Y0233584D02*
X0009186Y0233584D01*
X0009186Y0231986D02*
X0020989Y0231986D01*
X0020273Y0230387D02*
X0009186Y0230387D01*
X0009186Y0228789D02*
X0020121Y0228789D01*
X0020452Y0227190D02*
X0009186Y0227190D01*
X0009186Y0225592D02*
X0021421Y0225592D01*
X0023021Y0223993D02*
X0009186Y0223993D01*
X0009186Y0222395D02*
X0023021Y0222395D01*
X0023468Y0220796D02*
X0009186Y0220796D01*
X0009186Y0219198D02*
X0025066Y0219198D01*
X0026665Y0217599D02*
X0009186Y0217599D01*
X0009186Y0216001D02*
X0037953Y0216001D01*
X0037797Y0214402D02*
X0009186Y0214402D01*
X0009186Y0212803D02*
X0037797Y0212803D01*
X0037981Y0211205D02*
X0009186Y0211205D01*
X0009186Y0209606D02*
X0037981Y0209606D01*
X0040181Y0213985D02*
X0040181Y0197194D01*
X0039374Y0196387D01*
X0033042Y0196387D01*
X0033042Y0201387D02*
X0033022Y0201406D01*
X0024709Y0201406D01*
X0023921Y0200619D01*
X0022016Y0203212D02*
X0009186Y0203212D01*
X0009186Y0201614D02*
X0020890Y0201614D01*
X0020740Y0200015D02*
X0009186Y0200015D01*
X0009186Y0198417D02*
X0021625Y0198417D01*
X0020017Y0187227D02*
X0009186Y0187227D01*
X0009186Y0185629D02*
X0018419Y0185629D01*
X0016820Y0184030D02*
X0009186Y0184030D01*
X0009186Y0182432D02*
X0015221Y0182432D01*
X0013623Y0180833D02*
X0009186Y0180833D01*
X0009186Y0179235D02*
X0012233Y0179235D01*
X0012233Y0177636D02*
X0009186Y0177636D01*
X0009186Y0176038D02*
X0012233Y0176038D01*
X0012233Y0174439D02*
X0009186Y0174439D01*
X0009186Y0172841D02*
X0012233Y0172841D01*
X0012233Y0171242D02*
X0009186Y0171242D01*
X0009186Y0169644D02*
X0012233Y0169644D01*
X0012049Y0168045D02*
X0009186Y0168045D01*
X0009186Y0166447D02*
X0012049Y0166447D01*
X0012049Y0164848D02*
X0009186Y0164848D01*
X0009186Y0163250D02*
X0012171Y0163250D01*
X0012049Y0161651D02*
X0009186Y0161651D01*
X0009186Y0160053D02*
X0012049Y0160053D01*
X0012233Y0158454D02*
X0009186Y0158454D01*
X0009186Y0156856D02*
X0012233Y0156856D01*
X0012233Y0155257D02*
X0009186Y0155257D01*
X0009186Y0153659D02*
X0012233Y0153659D01*
X0012233Y0152060D02*
X0009186Y0152060D01*
X0009186Y0150462D02*
X0012700Y0150462D01*
X0014298Y0148863D02*
X0009186Y0148863D01*
X0009186Y0147265D02*
X0015897Y0147265D01*
X0021347Y0145666D02*
X0009186Y0145666D01*
X0022932Y0169644D02*
X0027642Y0169644D01*
X0027642Y0171242D02*
X0022932Y0171242D01*
X0024058Y0172841D02*
X0027642Y0172841D01*
X0023882Y0166190D02*
X0041067Y0166190D01*
X0045575Y0170698D01*
X0045575Y0174635D01*
X0044509Y0177636D02*
X0042357Y0177636D01*
X0042357Y0176038D02*
X0042713Y0176038D01*
X0042394Y0174439D02*
X0042357Y0174439D01*
X0042357Y0172841D02*
X0042875Y0172841D01*
X0043008Y0171242D02*
X0041326Y0171242D01*
X0041410Y0169644D02*
X0039728Y0169644D01*
X0042837Y0164848D02*
X0064287Y0164848D01*
X0064287Y0163250D02*
X0060465Y0163250D01*
X0062063Y0161651D02*
X0064379Y0161651D01*
X0063662Y0160053D02*
X0074084Y0160053D01*
X0074084Y0161651D02*
X0071731Y0161651D01*
X0071824Y0163250D02*
X0074084Y0163250D01*
X0074084Y0164848D02*
X0071824Y0164848D01*
X0071824Y0166447D02*
X0074084Y0166447D01*
X0074084Y0168045D02*
X0071123Y0168045D01*
X0071424Y0169644D02*
X0074084Y0169644D01*
X0074084Y0171242D02*
X0071424Y0171242D01*
X0071424Y0172841D02*
X0074084Y0172841D01*
X0074084Y0174439D02*
X0070821Y0174439D01*
X0070374Y0176038D02*
X0074084Y0176038D01*
X0074084Y0177636D02*
X0071000Y0177636D01*
X0070743Y0179235D02*
X0074084Y0179235D01*
X0074084Y0180833D02*
X0069246Y0180833D01*
X0067521Y0182432D02*
X0074084Y0182432D01*
X0074084Y0184030D02*
X0068979Y0184030D01*
X0069229Y0185629D02*
X0074084Y0185629D01*
X0074084Y0187227D02*
X0068583Y0187227D01*
X0068051Y0188826D02*
X0062648Y0188826D01*
X0063042Y0187227D02*
X0063511Y0187227D01*
X0064303Y0180833D02*
X0066392Y0180833D01*
X0064895Y0179235D02*
X0062370Y0179235D01*
X0062642Y0177636D02*
X0064638Y0177636D01*
X0065264Y0176038D02*
X0062642Y0176038D01*
X0062574Y0174439D02*
X0065289Y0174439D01*
X0064988Y0168045D02*
X0046034Y0168045D01*
X0047632Y0169644D02*
X0051842Y0169644D01*
X0051842Y0171242D02*
X0047775Y0171242D01*
X0048275Y0172841D02*
X0051842Y0172841D01*
X0051909Y0174439D02*
X0048756Y0174439D01*
X0048437Y0176038D02*
X0049359Y0176038D01*
X0048006Y0177636D02*
X0046641Y0177636D01*
X0048006Y0179235D02*
X0042357Y0179235D01*
X0042357Y0180833D02*
X0048006Y0180833D01*
X0048006Y0182432D02*
X0042357Y0182432D01*
X0042357Y0184030D02*
X0048006Y0184030D01*
X0048006Y0185629D02*
X0042357Y0185629D01*
X0043926Y0187227D02*
X0048006Y0187227D01*
X0048006Y0188826D02*
X0045524Y0188826D01*
X0047123Y0190424D02*
X0048006Y0190424D01*
X0054100Y0209606D02*
X0063360Y0209606D01*
X0063360Y0208008D02*
X0062642Y0208008D01*
X0062642Y0206409D02*
X0063360Y0206409D01*
X0063360Y0204811D02*
X0062642Y0204811D01*
X0062487Y0211205D02*
X0054955Y0211205D01*
X0054955Y0212803D02*
X0062079Y0212803D01*
X0062471Y0214402D02*
X0054955Y0214402D01*
X0054955Y0216001D02*
X0064617Y0216001D01*
X0063698Y0217599D02*
X0074084Y0217599D01*
X0074084Y0216001D02*
X0065903Y0216001D01*
X0065296Y0219198D02*
X0074084Y0219198D01*
X0074084Y0220796D02*
X0066895Y0220796D01*
X0067421Y0222395D02*
X0074084Y0222395D01*
X0074084Y0223993D02*
X0067421Y0223993D01*
X0069020Y0225592D02*
X0074084Y0225592D01*
X0074084Y0227190D02*
X0069989Y0227190D01*
X0070321Y0228789D02*
X0074084Y0228789D01*
X0074084Y0230387D02*
X0070168Y0230387D01*
X0069452Y0231986D02*
X0074084Y0231986D01*
X0074084Y0233584D02*
X0067492Y0233584D01*
X0065221Y0229005D02*
X0065221Y0222233D01*
X0061894Y0218906D01*
X0049630Y0218906D01*
X0046480Y0221603D02*
X0047937Y0223060D01*
X0053449Y0223060D01*
X0055221Y0224831D01*
X0055221Y0229005D01*
X0057492Y0233584D02*
X0062949Y0233584D01*
X0060989Y0231986D02*
X0059452Y0231986D01*
X0060168Y0230387D02*
X0060273Y0230387D01*
X0064868Y0243175D02*
X0052414Y0243175D01*
X0051085Y0241577D02*
X0066467Y0241577D01*
X0068065Y0239978D02*
X0051463Y0239978D01*
X0051463Y0238380D02*
X0069664Y0238380D01*
X0071262Y0236781D02*
X0051463Y0236781D01*
X0051331Y0235183D02*
X0072861Y0235183D01*
X0074288Y0239978D02*
X0081373Y0239978D01*
X0081373Y0238380D02*
X0075886Y0238380D01*
X0077485Y0236781D02*
X0081373Y0236781D01*
X0081373Y0235183D02*
X0078484Y0235183D01*
X0078484Y0233584D02*
X0081373Y0233584D01*
X0081373Y0231986D02*
X0078484Y0231986D01*
X0078484Y0230387D02*
X0081373Y0230387D01*
X0081373Y0228789D02*
X0078484Y0228789D01*
X0078484Y0227190D02*
X0081373Y0227190D01*
X0081373Y0225592D02*
X0078484Y0225592D01*
X0078484Y0223993D02*
X0081373Y0223993D01*
X0081373Y0222395D02*
X0078484Y0222395D01*
X0078484Y0220796D02*
X0081373Y0220796D01*
X0081373Y0219198D02*
X0078484Y0219198D01*
X0078484Y0217599D02*
X0081373Y0217599D01*
X0081373Y0216001D02*
X0078484Y0216001D01*
X0078484Y0214402D02*
X0081373Y0214402D01*
X0081373Y0212803D02*
X0078484Y0212803D01*
X0078484Y0211205D02*
X0081373Y0211205D01*
X0081373Y0209606D02*
X0078484Y0209606D01*
X0078484Y0208008D02*
X0081373Y0208008D01*
X0081373Y0206409D02*
X0078484Y0206409D01*
X0078484Y0204811D02*
X0081373Y0204811D01*
X0081373Y0203212D02*
X0078484Y0203212D01*
X0078484Y0201614D02*
X0081373Y0201614D01*
X0081373Y0200015D02*
X0078484Y0200015D01*
X0078484Y0198417D02*
X0081373Y0198417D01*
X0081373Y0196818D02*
X0078484Y0196818D01*
X0078484Y0195220D02*
X0081373Y0195220D01*
X0081373Y0193621D02*
X0078484Y0193621D01*
X0078484Y0192023D02*
X0081373Y0192023D01*
X0081373Y0190424D02*
X0078484Y0190424D01*
X0078484Y0188826D02*
X0081373Y0188826D01*
X0081373Y0187227D02*
X0078484Y0187227D01*
X0078484Y0185629D02*
X0081373Y0185629D01*
X0081373Y0184030D02*
X0078484Y0184030D01*
X0078484Y0182432D02*
X0081373Y0182432D01*
X0081373Y0180833D02*
X0078484Y0180833D01*
X0078484Y0179235D02*
X0081373Y0179235D01*
X0081373Y0177636D02*
X0078484Y0177636D01*
X0078484Y0176038D02*
X0081373Y0176038D01*
X0081373Y0174439D02*
X0078484Y0174439D01*
X0078484Y0172841D02*
X0081373Y0172841D01*
X0081373Y0171242D02*
X0078484Y0171242D01*
X0078484Y0169644D02*
X0081373Y0169644D01*
X0081373Y0168045D02*
X0078484Y0168045D01*
X0078484Y0166447D02*
X0081373Y0166447D01*
X0081373Y0164848D02*
X0078484Y0164848D01*
X0078484Y0163250D02*
X0081373Y0163250D01*
X0081373Y0161651D02*
X0078484Y0161651D01*
X0078484Y0160053D02*
X0081373Y0160053D01*
X0081373Y0158454D02*
X0078484Y0158454D01*
X0078484Y0156856D02*
X0081373Y0156856D01*
X0081373Y0155257D02*
X0078484Y0155257D01*
X0078484Y0153659D02*
X0081373Y0153659D01*
X0081373Y0152060D02*
X0078484Y0152060D01*
X0078484Y0150462D02*
X0081373Y0150462D01*
X0081373Y0148863D02*
X0078484Y0148863D01*
X0078484Y0147265D02*
X0081373Y0147265D01*
X0081373Y0145666D02*
X0078484Y0145666D01*
X0078484Y0144068D02*
X0081373Y0144068D01*
X0081373Y0142469D02*
X0077938Y0142469D01*
X0076284Y0143926D02*
X0076284Y0234871D01*
X0064827Y0246328D01*
X0049945Y0246328D01*
X0052325Y0249569D02*
X0081373Y0249569D01*
X0081373Y0247971D02*
X0066295Y0247971D01*
X0067894Y0246372D02*
X0081373Y0246372D01*
X0081373Y0244774D02*
X0069492Y0244774D01*
X0071091Y0243175D02*
X0081373Y0243175D01*
X0081373Y0241577D02*
X0072689Y0241577D01*
X0081373Y0251168D02*
X0009186Y0251168D01*
X0009186Y0251969D02*
X0081373Y0251969D01*
X0081373Y0003600D01*
X0009186Y0003600D01*
X0009186Y0251969D01*
X0009186Y0208008D02*
X0027265Y0208008D01*
X0027242Y0207924D02*
X0027242Y0206387D01*
X0033042Y0206387D01*
X0033042Y0209487D01*
X0028805Y0209487D01*
X0028347Y0209364D01*
X0027937Y0209127D01*
X0027602Y0208792D01*
X0027365Y0208381D01*
X0027242Y0207924D01*
X0027242Y0206409D02*
X0009186Y0206409D01*
X0009186Y0204811D02*
X0027252Y0204811D01*
X0027792Y0198417D02*
X0026218Y0198417D01*
X0027642Y0196818D02*
X0009186Y0196818D01*
X0009186Y0195220D02*
X0027642Y0195220D01*
X0027997Y0193621D02*
X0009186Y0193621D01*
X0009186Y0192023D02*
X0027642Y0192023D01*
X0027642Y0190424D02*
X0009186Y0190424D01*
X0009186Y0188826D02*
X0028201Y0188826D01*
X0033042Y0206387D02*
X0033042Y0206387D01*
X0033042Y0206409D02*
X0033042Y0206409D01*
X0033042Y0208008D02*
X0033042Y0208008D01*
X0030273Y0230387D02*
X0030168Y0230387D01*
X0029452Y0231986D02*
X0030989Y0231986D01*
X0032949Y0233584D02*
X0027492Y0233584D01*
X0045221Y0229005D02*
X0048488Y0232272D01*
X0048488Y0238257D01*
X0050688Y0233584D02*
X0052949Y0233584D01*
X0050989Y0231986D02*
X0050688Y0231986D01*
X0046480Y0221603D02*
X0046480Y0218906D01*
X0044435Y0166447D02*
X0064287Y0166447D01*
X0065260Y0158454D02*
X0074084Y0158454D01*
X0074084Y0156856D02*
X0066859Y0156856D01*
X0067421Y0155257D02*
X0074084Y0155257D01*
X0074084Y0153659D02*
X0067421Y0153659D01*
X0069378Y0152060D02*
X0074084Y0152060D01*
X0074084Y0150462D02*
X0070137Y0150462D01*
X0070321Y0148863D02*
X0074084Y0148863D01*
X0074084Y0147265D02*
X0070020Y0147265D01*
X0069094Y0145666D02*
X0074084Y0145666D01*
X0073314Y0144068D02*
X0066628Y0144068D01*
X0065221Y0149005D02*
X0065221Y0155383D01*
X0059335Y0161269D01*
X0023882Y0161269D01*
X0030020Y0147265D02*
X0030421Y0147265D01*
X0031347Y0145666D02*
X0029094Y0145666D01*
X0026628Y0144068D02*
X0033813Y0144068D01*
X0038402Y0131279D02*
X0042865Y0131279D01*
X0042938Y0131317D02*
X0042147Y0130914D01*
X0041429Y0130392D01*
X0040802Y0129765D01*
X0040280Y0129047D01*
X0039877Y0128256D01*
X0039603Y0127412D01*
X0039470Y0126571D01*
X0044623Y0126571D01*
X0044623Y0131724D01*
X0043782Y0131591D01*
X0042938Y0131317D01*
X0041599Y0134476D02*
X0068218Y0134476D01*
X0068218Y0136075D02*
X0043197Y0136075D01*
X0044796Y0137673D02*
X0068218Y0137673D01*
X0068518Y0139272D02*
X0046394Y0139272D01*
X0047421Y0140870D02*
X0070117Y0140870D01*
X0070418Y0138060D02*
X0076284Y0143926D01*
X0076339Y0140870D02*
X0081373Y0140870D01*
X0081373Y0139272D02*
X0074741Y0139272D01*
X0073142Y0137673D02*
X0081373Y0137673D01*
X0081373Y0136075D02*
X0072617Y0136075D01*
X0072617Y0134476D02*
X0081373Y0134476D01*
X0081373Y0132878D02*
X0073786Y0132878D01*
X0073786Y0131279D02*
X0081373Y0131279D01*
X0081373Y0129681D02*
X0073786Y0129681D01*
X0073786Y0128082D02*
X0081373Y0128082D01*
X0081373Y0126484D02*
X0073538Y0126484D01*
X0070932Y0124885D02*
X0070307Y0124885D01*
X0070446Y0123287D02*
X0070789Y0123287D01*
X0070789Y0121688D02*
X0070446Y0121688D01*
X0070446Y0121222D02*
X0066862Y0121222D01*
X0066862Y0116850D01*
X0068883Y0116850D01*
X0069341Y0116973D01*
X0069751Y0117210D01*
X0070086Y0117545D01*
X0070323Y0117956D01*
X0070446Y0118413D01*
X0070446Y0121222D01*
X0070446Y0120090D02*
X0070789Y0120090D01*
X0070789Y0118491D02*
X0070446Y0118491D01*
X0071761Y0116893D02*
X0069041Y0116893D01*
X0066862Y0116893D02*
X0066493Y0116893D01*
X0066493Y0118491D02*
X0066862Y0118491D01*
X0066862Y0120090D02*
X0066493Y0120090D01*
X0066493Y0121688D02*
X0066862Y0121688D01*
X0066862Y0123287D02*
X0066493Y0123287D01*
X0066493Y0124885D02*
X0066862Y0124885D01*
X0067297Y0126484D02*
X0045582Y0126484D01*
X0045582Y0126571D02*
X0050735Y0126571D01*
X0050602Y0127412D01*
X0050328Y0128256D01*
X0049925Y0129047D01*
X0049403Y0129765D01*
X0048776Y0130392D01*
X0048058Y0130914D01*
X0047267Y0131317D01*
X0046423Y0131591D01*
X0045582Y0131724D01*
X0045582Y0126571D01*
X0044623Y0126571D01*
X0044623Y0125612D01*
X0039470Y0125612D01*
X0039603Y0124771D01*
X0039877Y0123927D01*
X0040280Y0123136D01*
X0040802Y0122418D01*
X0041429Y0121790D01*
X0042147Y0121269D01*
X0042938Y0120866D01*
X0043782Y0120592D01*
X0044623Y0120458D01*
X0044623Y0125612D01*
X0045582Y0125612D01*
X0045582Y0126571D01*
X0045582Y0125612D02*
X0050735Y0125612D01*
X0050602Y0124771D01*
X0050328Y0123927D01*
X0049925Y0123136D01*
X0049403Y0122418D01*
X0048776Y0121790D01*
X0048058Y0121269D01*
X0047267Y0120866D01*
X0046423Y0120592D01*
X0045582Y0120458D01*
X0045582Y0125612D01*
X0045582Y0124885D02*
X0044623Y0124885D01*
X0044623Y0123287D02*
X0045582Y0123287D01*
X0045582Y0121688D02*
X0044623Y0121688D01*
X0044623Y0126484D02*
X0034063Y0126484D01*
X0034063Y0124885D02*
X0039585Y0124885D01*
X0040203Y0123287D02*
X0034063Y0123287D01*
X0034063Y0121688D02*
X0041570Y0121688D01*
X0039821Y0128082D02*
X0035205Y0128082D01*
X0036803Y0129681D02*
X0040741Y0129681D01*
X0040000Y0132878D02*
X0067049Y0132878D01*
X0067049Y0131279D02*
X0047340Y0131279D01*
X0045582Y0131279D02*
X0044623Y0131279D01*
X0044623Y0129681D02*
X0045582Y0129681D01*
X0045582Y0128082D02*
X0044623Y0128082D01*
X0048635Y0121688D02*
X0062909Y0121688D01*
X0062909Y0120090D02*
X0056166Y0120090D01*
X0056630Y0118491D02*
X0062909Y0118491D01*
X0064314Y0116893D02*
X0056295Y0116893D01*
X0054420Y0115294D02*
X0065200Y0115294D01*
X0064147Y0113696D02*
X0053380Y0113696D01*
X0051536Y0108900D02*
X0043524Y0108900D01*
X0045122Y0107302D02*
X0053205Y0107302D01*
X0052613Y0105703D02*
X0046721Y0105703D01*
X0048319Y0104105D02*
X0052613Y0104105D01*
X0053257Y0102506D02*
X0049918Y0102506D01*
X0050231Y0100908D02*
X0052613Y0100908D01*
X0052613Y0099309D02*
X0050231Y0099309D01*
X0050231Y0097711D02*
X0053053Y0097711D01*
X0052213Y0096112D02*
X0050231Y0096112D01*
X0050231Y0094514D02*
X0052213Y0094514D01*
X0052405Y0092915D02*
X0050231Y0092915D01*
X0050231Y0091317D02*
X0081373Y0091317D01*
X0081373Y0092915D02*
X0064321Y0092915D01*
X0064513Y0094514D02*
X0081373Y0094514D01*
X0081373Y0096112D02*
X0064513Y0096112D01*
X0063674Y0097711D02*
X0070440Y0097711D01*
X0070443Y0102506D02*
X0063469Y0102506D01*
X0063521Y0107302D02*
X0065029Y0107302D01*
X0065029Y0108900D02*
X0064113Y0108900D01*
X0064113Y0110499D02*
X0065029Y0110499D01*
X0064086Y0112097D02*
X0063726Y0112097D01*
X0062909Y0123287D02*
X0050002Y0123287D01*
X0050620Y0124885D02*
X0063048Y0124885D01*
X0067049Y0128082D02*
X0050384Y0128082D01*
X0049464Y0129681D02*
X0067049Y0129681D01*
X0070418Y0130068D02*
X0070418Y0138060D01*
X0071715Y0142469D02*
X0047421Y0142469D01*
X0049094Y0145666D02*
X0051347Y0145666D01*
X0050421Y0147265D02*
X0050020Y0147265D01*
X0056628Y0144068D02*
X0063813Y0144068D01*
X0061347Y0145666D02*
X0059094Y0145666D01*
X0060020Y0147265D02*
X0060421Y0147265D01*
X0067871Y0161651D02*
X0068240Y0161651D01*
X0068240Y0163250D02*
X0067871Y0163250D01*
X0069555Y0188826D02*
X0074084Y0188826D01*
X0074084Y0190424D02*
X0071611Y0190424D01*
X0071984Y0192023D02*
X0074084Y0192023D01*
X0074084Y0193621D02*
X0071557Y0193621D01*
X0071470Y0196818D02*
X0074084Y0196818D01*
X0074084Y0195220D02*
X0068060Y0195220D01*
X0067645Y0201614D02*
X0067160Y0201614D01*
X0067160Y0203212D02*
X0074084Y0203212D01*
X0074084Y0201614D02*
X0069961Y0201614D01*
X0071681Y0200015D02*
X0074084Y0200015D01*
X0074084Y0198417D02*
X0071984Y0198417D01*
X0074084Y0204811D02*
X0067160Y0204811D01*
X0067160Y0206409D02*
X0074084Y0206409D01*
X0074084Y0208008D02*
X0067160Y0208008D01*
X0067160Y0209606D02*
X0074084Y0209606D01*
X0074084Y0211205D02*
X0068033Y0211205D01*
X0068441Y0212803D02*
X0074084Y0212803D01*
X0074084Y0214402D02*
X0068049Y0214402D01*
X0050733Y0120090D02*
X0034063Y0120090D01*
X0034063Y0118491D02*
X0050268Y0118491D01*
X0049580Y0116893D02*
X0034063Y0116893D01*
X0034063Y0115294D02*
X0049580Y0115294D01*
X0049580Y0113696D02*
X0034063Y0113696D01*
X0037226Y0112097D02*
X0049580Y0112097D01*
X0049937Y0110499D02*
X0041925Y0110499D01*
X0050231Y0089718D02*
X0081373Y0089718D01*
X0081373Y0088120D02*
X0051312Y0088120D01*
X0051806Y0086521D02*
X0051862Y0086521D01*
X0052045Y0078529D02*
X0053690Y0078529D01*
X0050916Y0070536D02*
X0048816Y0070536D01*
X0049466Y0072134D02*
X0050266Y0072134D01*
X0050266Y0073733D02*
X0049466Y0073733D01*
X0049868Y0075332D02*
X0048888Y0075332D01*
X0048270Y0076930D02*
X0047448Y0076930D01*
X0048006Y0078529D02*
X0046042Y0078529D01*
X0043690Y0078529D02*
X0041963Y0078529D01*
X0047029Y0068937D02*
X0052703Y0068937D01*
X0046145Y0052590D02*
X0048070Y0051792D01*
X0049544Y0050319D01*
X0050341Y0048393D01*
X0050341Y0046309D01*
X0049544Y0044384D01*
X0048070Y0042910D01*
X0046145Y0042113D01*
X0044061Y0042113D01*
X0042135Y0042910D01*
X0040661Y0044384D01*
X0039864Y0046309D01*
X0039864Y0048393D01*
X0040661Y0050319D01*
X0042135Y0051792D01*
X0044061Y0052590D01*
X0046145Y0052590D01*
X0048508Y0051354D02*
X0081373Y0051354D01*
X0081373Y0052952D02*
X0009186Y0052952D01*
X0009186Y0051354D02*
X0041697Y0051354D01*
X0040428Y0049755D02*
X0009186Y0049755D01*
X0009186Y0048157D02*
X0039864Y0048157D01*
X0039864Y0046558D02*
X0009186Y0046558D01*
X0009186Y0044960D02*
X0040423Y0044960D01*
X0041684Y0043361D02*
X0009186Y0043361D01*
X0009186Y0041763D02*
X0081373Y0041763D01*
X0081373Y0043361D02*
X0048521Y0043361D01*
X0049782Y0044960D02*
X0081373Y0044960D01*
X0081373Y0046558D02*
X0050341Y0046558D01*
X0050341Y0048157D02*
X0081373Y0048157D01*
X0081373Y0049755D02*
X0049777Y0049755D01*
X0059005Y0062543D02*
X0081373Y0062543D01*
X0081373Y0060945D02*
X0009186Y0060945D01*
X0009186Y0059346D02*
X0081373Y0059346D01*
X0081373Y0057748D02*
X0009186Y0057748D01*
X0009186Y0056149D02*
X0081373Y0056149D01*
X0081373Y0054551D02*
X0009186Y0054551D01*
X0009186Y0040164D02*
X0081373Y0040164D01*
X0081373Y0038566D02*
X0009186Y0038566D01*
X0009186Y0036967D02*
X0081373Y0036967D01*
X0081373Y0035369D02*
X0009186Y0035369D01*
X0009186Y0033770D02*
X0081373Y0033770D01*
X0081373Y0032172D02*
X0009186Y0032172D01*
X0009186Y0030573D02*
X0081373Y0030573D01*
X0081373Y0028975D02*
X0009186Y0028975D01*
X0009186Y0027376D02*
X0081373Y0027376D01*
X0081373Y0025778D02*
X0009186Y0025778D01*
X0009186Y0024179D02*
X0081373Y0024179D01*
X0081373Y0022581D02*
X0009186Y0022581D01*
X0009186Y0020982D02*
X0081373Y0020982D01*
X0081373Y0019384D02*
X0009186Y0019384D01*
X0009186Y0017785D02*
X0081373Y0017785D01*
X0081373Y0016187D02*
X0009186Y0016187D01*
X0009186Y0014588D02*
X0081373Y0014588D01*
X0081373Y0012990D02*
X0009186Y0012990D01*
X0009186Y0011391D02*
X0081373Y0011391D01*
X0081373Y0009793D02*
X0009186Y0009793D01*
X0009186Y0008194D02*
X0081373Y0008194D01*
X0081373Y0006596D02*
X0009186Y0006596D01*
X0009186Y0004997D02*
X0081373Y0004997D01*
X0081373Y0064142D02*
X0060604Y0064142D01*
X0062202Y0065740D02*
X0081373Y0065740D01*
X0081373Y0067339D02*
X0063801Y0067339D01*
X0064010Y0068937D02*
X0081373Y0068937D01*
X0081373Y0070536D02*
X0064010Y0070536D01*
X0064010Y0072134D02*
X0081373Y0072134D01*
X0081373Y0073733D02*
X0064010Y0073733D01*
X0064010Y0075332D02*
X0081373Y0075332D01*
X0081373Y0076930D02*
X0064010Y0076930D01*
X0064010Y0078529D02*
X0081373Y0078529D01*
X0081373Y0080127D02*
X0064010Y0080127D01*
X0063612Y0081726D02*
X0081373Y0081726D01*
X0081373Y0083324D02*
X0062013Y0083324D01*
X0077481Y0097711D02*
X0081373Y0097711D01*
X0081373Y0099309D02*
X0077723Y0099309D01*
X0077723Y0100908D02*
X0081373Y0100908D01*
X0081373Y0102506D02*
X0077479Y0102506D01*
X0029663Y0113696D02*
X0025558Y0113696D01*
X0025558Y0115294D02*
X0029663Y0115294D01*
X0029663Y0116893D02*
X0025558Y0116893D01*
X0025781Y0118491D02*
X0029663Y0118491D01*
X0029663Y0120090D02*
X0025958Y0120090D01*
X0025958Y0121688D02*
X0029663Y0121688D01*
X0029663Y0123287D02*
X0025958Y0123287D01*
X0025429Y0124885D02*
X0029663Y0124885D01*
D23*
X0031863Y0109930D02*
X0039807Y0109930D01*
X0048331Y0101406D01*
X0048331Y0088414D01*
X0049906Y0086839D01*
X0049906Y0077981D01*
X0054866Y0073020D01*
X0062110Y0068335D02*
X0058173Y0064398D01*
X0028252Y0064398D01*
X0022740Y0069910D01*
X0022740Y0096682D01*
X0025988Y0099930D01*
X0031863Y0099930D01*
X0031863Y0104930D02*
X0019610Y0104930D01*
X0015260Y0109280D01*
X0031863Y0104930D02*
X0031883Y0104950D01*
X0038488Y0104950D01*
X0044866Y0098572D01*
X0044866Y0083020D01*
X0040063Y0077391D02*
X0044433Y0073020D01*
X0044866Y0073020D01*
X0040063Y0077391D02*
X0040063Y0092745D01*
X0037878Y0094930D01*
X0031863Y0094930D01*
X0051480Y0111643D02*
X0051480Y0116367D01*
X0053449Y0118335D01*
X0051480Y0111643D02*
X0053193Y0109930D01*
X0058363Y0109930D01*
X0059630Y0083020D02*
X0054866Y0083020D01*
X0059630Y0083020D02*
X0062110Y0080540D01*
X0062110Y0068335D01*
X0068055Y0171091D02*
X0067819Y0171328D01*
X0067819Y0177981D01*
X0067760Y0171387D02*
X0068055Y0171091D01*
X0067760Y0171387D02*
X0057242Y0171387D01*
X0057242Y0176387D02*
X0051697Y0176387D01*
X0049906Y0178178D01*
X0049906Y0208099D01*
X0053055Y0211249D01*
X0053055Y0215580D01*
X0052268Y0216367D01*
X0047150Y0216367D01*
X0046480Y0215698D01*
X0046480Y0213985D01*
X0049630Y0211761D02*
X0046756Y0208887D01*
X0046756Y0192745D01*
X0040457Y0186446D01*
X0040457Y0173060D01*
X0038784Y0171387D01*
X0033042Y0171387D01*
X0049630Y0211761D02*
X0049630Y0213985D01*
X0057242Y0201387D02*
X0064453Y0201387D01*
X0065260Y0202194D01*
X0065260Y0212824D01*
X0068803Y0198650D02*
X0066540Y0196387D01*
X0057242Y0196387D01*
X0057242Y0191387D02*
X0068232Y0191387D01*
X0068803Y0191957D01*
X0066047Y0185265D02*
X0062169Y0181387D01*
X0057242Y0181387D01*
D24*
X0066047Y0185265D03*
X0068803Y0191957D03*
X0068803Y0198650D03*
X0065260Y0212824D03*
X0067819Y0177981D03*
X0053449Y0118335D03*
X0067229Y0112824D03*
X0045575Y0174635D03*
X0023921Y0200619D03*
X0015260Y0109280D03*
M02*
