G75*
%MOIN*%
%OFA0B0*%
%FSLAX25Y25*%
%IPPOS*%
%LPD*%
%AMOC8*
5,1,8,0,0,1.08239X$1,22.5*
%
%ADD10C,0.00000*%
%ADD11R,0.03937X0.04331*%
%ADD12R,0.08000X0.02600*%
%ADD13R,0.03937X0.05512*%
%ADD14R,0.01969X0.02559*%
%ADD15R,0.04724X0.03150*%
%ADD16R,0.03150X0.04724*%
%ADD17R,0.08700X0.02400*%
D10*
X0007386Y0001800D02*
X0007386Y0253769D01*
X0083173Y0253769D01*
X0083173Y0001800D01*
X0007386Y0001800D01*
D11*
X0022189Y0114753D03*
X0022189Y0121446D03*
X0068055Y0164398D03*
X0068055Y0171091D03*
D12*
X0057242Y0171387D03*
X0057242Y0176387D03*
X0057242Y0181387D03*
X0057242Y0186387D03*
X0057242Y0191387D03*
X0057242Y0196387D03*
X0057242Y0201387D03*
X0057242Y0206387D03*
X0033042Y0206387D03*
X0033042Y0201387D03*
X0033042Y0196387D03*
X0033042Y0191387D03*
X0033042Y0186387D03*
X0033042Y0181387D03*
X0033042Y0176387D03*
X0033042Y0171387D03*
D13*
X0066677Y0121406D03*
X0070418Y0130068D03*
X0074158Y0121406D03*
D14*
X0049630Y0213985D03*
X0049630Y0218906D03*
X0046480Y0218906D03*
X0046480Y0213985D03*
X0043331Y0213985D03*
X0043331Y0218906D03*
X0040181Y0218906D03*
X0040181Y0213985D03*
X0023882Y0166190D03*
X0023882Y0161269D03*
X0020732Y0161269D03*
X0020732Y0166190D03*
X0017583Y0166190D03*
X0017583Y0161269D03*
X0014433Y0161269D03*
X0014433Y0166190D03*
D15*
X0073961Y0107194D03*
X0073961Y0100107D03*
D16*
X0048488Y0238257D03*
X0041402Y0238257D03*
D17*
X0031863Y0109930D03*
X0031863Y0104930D03*
X0031863Y0099930D03*
X0031863Y0094930D03*
X0058363Y0094930D03*
X0058363Y0099930D03*
X0058363Y0104930D03*
X0058363Y0109930D03*
M02*
