%
M48
M72
T01C0.02362
T02C0.03150
T03C0.03543
T04C0.03937
T05C0.05118
%
T01
X15260Y109280
X45575Y174635
X65260Y212824
X68803Y198650
X68803Y191957
X66047Y185265
X67819Y177981
X53449Y118335
X67229Y112824
X23921Y200619
T02
X39945Y246328
X49945Y246328
T03
X34866Y83020
X34866Y73020
X44866Y73020
X44866Y83020
X54866Y83020
X54866Y73020
T04
X25221Y149005
X35221Y149005
X45221Y149005
X55221Y149005
X65221Y149005
X65221Y229005
X55221Y229005
X45221Y229005
X35221Y229005
X25221Y229005
T05
X45103Y126091
X45103Y47351
M30
